<svg width="18" height="18" viewBox="0 0 18 18" fill="none" xmlns="http://www.w3.org/2000/svg">
<path fill-rule="evenodd" clip-rule="evenodd" d="M4.875 13.5C4.57663 13.5 4.29048 13.6185 4.0795 13.8295C3.86853 14.0405 3.75 14.3266 3.75 14.625C3.75 15.0392 3.41421 15.375 3 15.375C2.58579 15.375 2.25 15.0392 2.25 14.625C2.25 13.9288 2.52656 13.2611 3.01884 12.7688C3.51113 12.2766 4.17881 12 4.875 12H15C15.4142 12 15.75 12.3358 15.75 12.75C15.75 13.1642 15.4142 13.5 15 13.5H4.875Z" fill="white"/>
<path fill-rule="evenodd" clip-rule="evenodd" d="M4.875 2.25C4.57663 2.25 4.29048 2.36853 4.0795 2.5795C3.86853 2.79048 3.75 3.07663 3.75 3.375V14.625C3.75 14.9234 3.86853 15.2095 4.0795 15.4205C4.29048 15.6315 4.57663 15.75 4.875 15.75H14.25V2.25H4.875ZM4.875 0.75H15C15.4142 0.75 15.75 1.08579 15.75 1.5V16.5C15.75 16.9142 15.4142 17.25 15 17.25H4.875C4.17881 17.25 3.51113 16.9734 3.01884 16.4812C2.52656 15.9889 2.25 15.3212 2.25 14.625V3.375C2.25 2.67881 2.52656 2.01113 3.01884 1.51884C3.51113 1.02656 4.17881 0.75 4.875 0.75Z" fill="white"/>
</svg>
