<svg width="24" height="24" viewBox="0 0 24 24" fill="none" xmlns="http://www.w3.org/2000/svg">
<path fill-rule="evenodd" clip-rule="evenodd" d="M19.8782 4.11105C19.6511 4.01803 19.4077 3.97113 19.1623 3.97308C18.9169 3.97503 18.6743 4.02579 18.4487 4.1224C18.2231 4.21902 18.019 4.35955 17.8482 4.53582L17.8367 4.54758L9.76667 12.6076C9.3759 12.9979 8.74273 12.9975 8.35245 12.6067C7.96217 12.2159 7.96256 11.5828 8.35333 11.1925L16.4179 3.13789C16.772 2.77403 17.1946 2.48379 17.6614 2.28389C18.1309 2.08284 18.6357 1.9772 19.1464 1.97314C19.6572 1.96909 20.1636 2.06669 20.6362 2.26026C21.1088 2.45384 21.5382 2.73952 21.8994 3.10066C22.2605 3.46181 22.5462 3.8912 22.7398 4.36383C22.9333 4.83646 23.0309 5.34288 23.0269 5.85361C23.0228 6.36433 22.9172 6.86913 22.7161 7.33863C22.5163 7.80531 22.2261 8.22782 21.8624 8.58188L13.808 16.6563C13.4179 17.0473 12.7848 17.0481 12.3938 16.658C12.0028 16.268 12.002 15.6348 12.392 15.2438L20.452 7.16381L20.4642 7.15179C20.6405 6.98103 20.781 6.7769 20.8776 6.5513C20.9742 6.3257 21.025 6.08313 21.027 5.83772C21.0289 5.59231 20.982 5.34896 20.889 5.12185C20.796 4.89474 20.6587 4.68841 20.4852 4.51487C20.3116 4.34134 20.1053 4.20406 19.8782 4.11105Z" fill="#2C3E50"/>
<path fill-rule="evenodd" clip-rule="evenodd" d="M3.07003 17.9591C3.07051 15.7437 4.85156 13.9399 7.07003 13.9399V14.9399L7.07335 13.9399C7.59995 13.9417 8.12105 14.0471 8.6069 14.2503C9.09275 14.4534 9.53382 14.7503 9.90495 15.1239C10.2761 15.4975 10.57 15.9405 10.7699 16.4277C10.9696 16.9143 11.0715 17.4355 11.07 17.9615C11.07 17.9621 11.07 17.9627 11.07 17.9633L10.07 17.9599H11.07C11.07 17.9605 11.07 17.961 11.07 17.9615C11.0692 20.7466 8.82827 22.9999 6.07003 22.9999C4.16519 22.9999 2.51284 21.8576 1.35873 20.6828C1.36013 20.6843 1.36153 20.6857 1.36292 20.687L2.07003 19.9799L1.35647 20.6805C1.35722 20.6813 1.35798 20.6821 1.35873 20.6828C1.25427 20.5775 1.12692 20.415 1.05595 20.1888C0.977879 19.94 0.990661 19.6848 1.07411 19.4583C1.21324 19.0808 1.51404 18.8766 1.61854 18.8073C1.76256 18.7117 1.92433 18.6311 2.0484 18.5712C2.11935 18.5369 2.17533 18.5106 2.22874 18.4855C2.29565 18.454 2.35852 18.4245 2.44171 18.3836C2.709 18.2523 2.89138 18.1418 3.00284 18.0372C3.04861 17.9943 3.0654 17.9675 3.07003 17.9591ZM3.07003 17.9591C3.07003 17.9593 3.07003 17.9596 3.07003 17.9599C3.07003 17.9608 3.0702 17.9606 3.07039 17.9599C3.07069 17.959 3.07105 17.9571 3.07092 17.9574C3.07069 17.9578 3.0704 17.9584 3.07003 17.9591ZM7.06837 15.9399C5.96789 15.9408 5.07003 16.8363 5.07003 17.9599C5.07003 18.6485 4.73277 19.1565 4.37159 19.4955C4.13451 19.718 3.86386 19.8909 3.62175 20.0244C4.4102 20.6266 5.25428 20.9999 6.07003 20.9999C7.71128 20.9999 9.07003 19.6541 9.07003 17.9599V17.9566H9.07004C9.07091 17.6927 9.01979 17.4311 8.91959 17.1869C8.81939 16.9427 8.67207 16.7206 8.48605 16.5334C8.30002 16.3461 8.07893 16.1973 7.8354 16.0955C7.59238 15.9939 7.33176 15.941 7.06837 15.9399ZM2.72464 20.4736C2.72663 20.4722 2.72894 20.4708 2.73161 20.4691C2.71168 20.4849 2.70581 20.4861 2.72464 20.4736Z" fill="#2C3E50"/>
</svg>
