<svg width="18" height="18" viewBox="0 0 18 18" fill="none" xmlns="http://www.w3.org/2000/svg">
<path fill-rule="evenodd" clip-rule="evenodd" d="M2.90901 1.40901C3.33097 0.987053 3.90326 0.75 4.5 0.75H10.875C11.0739 0.75 11.2647 0.829018 11.4053 0.96967L15.5303 5.09467C15.671 5.23532 15.75 5.42609 15.75 5.625V15C15.75 15.5967 15.5129 16.169 15.091 16.591C14.669 17.0129 14.0967 17.25 13.5 17.25H4.5C3.90326 17.25 3.33097 17.0129 2.90901 16.591C2.48705 16.169 2.25 15.5967 2.25 15V3C2.25 2.40326 2.48705 1.83097 2.90901 1.40901ZM4.5 2.25C4.30109 2.25 4.11032 2.32902 3.96967 2.46967C3.82902 2.61032 3.75 2.80109 3.75 3V15C3.75 15.1989 3.82902 15.3897 3.96967 15.5303C4.11032 15.671 4.30109 15.75 4.5 15.75H13.5C13.6989 15.75 13.8897 15.671 14.0303 15.5303C14.171 15.3897 14.25 15.1989 14.25 15V5.93566L10.5643 2.25H4.5Z" fill="white"/>
<path fill-rule="evenodd" clip-rule="evenodd" d="M10.5 0.75C10.9142 0.75 11.25 1.08579 11.25 1.5V5.25H15C15.4142 5.25 15.75 5.58579 15.75 6C15.75 6.41421 15.4142 6.75 15 6.75H10.5C10.0858 6.75 9.75 6.41421 9.75 6V1.5C9.75 1.08579 10.0858 0.75 10.5 0.75Z" fill="white"/>
<path fill-rule="evenodd" clip-rule="evenodd" d="M11.7803 9.21967C12.0732 9.51256 12.0732 9.98744 11.7803 10.2803L8.78033 13.2803C8.48744 13.5732 8.01256 13.5732 7.71967 13.2803L6.21967 11.7803C5.92678 11.4874 5.92678 11.0126 6.21967 10.7197C6.51256 10.4268 6.98744 10.4268 7.28033 10.7197L8.25 11.6893L10.7197 9.21967C11.0126 8.92678 11.4874 8.92678 11.7803 9.21967Z" fill="white"/>
</svg>
