<svg width="18" height="18" viewBox="0 0 18 18" fill="none" xmlns="http://www.w3.org/2000/svg">
<g clip-path="url(#clip0_6402_767)">
<path fill-rule="evenodd" clip-rule="evenodd" d="M1.40901 1.40901C1.83097 0.987053 2.40326 0.75 3 0.75H12.75C13.3467 0.75 13.919 0.987053 14.341 1.40901C14.7629 1.83097 15 2.40326 15 3V8.25C15 8.66421 14.6642 9 14.25 9C13.8358 9 13.5 8.66421 13.5 8.25V3C13.5 2.80109 13.421 2.61032 13.2803 2.46967C13.1397 2.32902 12.9489 2.25 12.75 2.25H3C2.80109 2.25 2.61032 2.32902 2.46967 2.46967C2.32902 2.61032 2.25 2.80109 2.25 3V12.75C2.25 12.9489 2.32902 13.1397 2.46967 13.2803C2.61032 13.421 2.80109 13.5 3 13.5H8.25C8.66421 13.5 9 13.8358 9 14.25C9 14.6642 8.66421 15 8.25 15H3C2.40326 15 1.83097 14.7629 1.40901 14.341C0.987053 13.919 0.75 13.3467 0.75 12.75V3C0.75 2.40326 0.987053 1.83097 1.40901 1.40901Z" fill="white"/>
<path fill-rule="evenodd" clip-rule="evenodd" d="M8.46968 8.46969C8.68457 8.2548 9.0079 8.19083 9.28843 8.3077L16.7884 11.4322C17.0764 11.5522 17.2601 11.8379 17.2496 12.1497C17.2391 12.4616 17.0367 12.7343 16.7412 12.8347L13.8257 13.825L12.8346 16.7413C12.7342 17.0367 12.4615 17.2391 12.1497 17.2496C11.8379 17.2601 11.5522 17.0764 11.4322 16.7884L8.30768 9.28844C8.19081 9.00791 8.25479 8.68458 8.46968 8.46969ZM10.3927 10.3927L12.0533 14.3788L12.5244 12.9924C12.5994 12.7718 12.7726 12.5986 12.9933 12.5236L14.3784 12.0531L10.3927 10.3927Z" fill="white"/>
<path fill-rule="evenodd" clip-rule="evenodd" d="M12.9697 12.9697C13.2626 12.6768 13.7374 12.6768 14.0303 12.9697L16.2803 15.2197C16.5732 15.5126 16.5732 15.9874 16.2803 16.2803C15.9874 16.5732 15.5126 16.5732 15.2197 16.2803L12.9697 14.0303C12.6768 13.7374 12.6768 13.2626 12.9697 12.9697Z" fill="white"/>
</g>
<defs>
<clipPath id="clip0_6402_767">
<rect width="18" height="18" fill="white"/>
</clipPath>
</defs>
</svg>
