<svg width="18" height="18" viewBox="0 0 18 18" fill="none" xmlns="http://www.w3.org/2000/svg">
<path fill-rule="evenodd" clip-rule="evenodd" d="M1.5 10.5C1.5 10.0858 1.83579 9.75 2.25 9.75H7.5C7.91421 9.75 8.25 10.0858 8.25 10.5V15.75C8.25 16.1642 7.91421 16.5 7.5 16.5H2.25C1.83579 16.5 1.5 16.1642 1.5 15.75V10.5ZM3 11.25V15H6.75V11.25H3Z" fill="white"/>
<path fill-rule="evenodd" clip-rule="evenodd" d="M1.5 2.25C1.5 1.83579 1.83579 1.5 2.25 1.5H7.5C7.91421 1.5 8.25 1.83579 8.25 2.25V7.5C8.25 7.91421 7.91421 8.25 7.5 8.25H2.25C1.83579 8.25 1.5 7.91421 1.5 7.5V2.25ZM3 3V6.75H6.75V3H3Z" fill="white"/>
<path fill-rule="evenodd" clip-rule="evenodd" d="M9.75 3C9.75 2.58579 10.0858 2.25 10.5 2.25H15.75C16.1642 2.25 16.5 2.58579 16.5 3C16.5 3.41421 16.1642 3.75 15.75 3.75H10.5C10.0858 3.75 9.75 3.41421 9.75 3Z" fill="white"/>
<path fill-rule="evenodd" clip-rule="evenodd" d="M9.75 6.75C9.75 6.33579 10.0858 6 10.5 6H15.75C16.1642 6 16.5 6.33579 16.5 6.75C16.5 7.16421 16.1642 7.5 15.75 7.5H10.5C10.0858 7.5 9.75 7.16421 9.75 6.75Z" fill="white"/>
<path fill-rule="evenodd" clip-rule="evenodd" d="M9.75 11.25C9.75 10.8358 10.0858 10.5 10.5 10.5H15.75C16.1642 10.5 16.5 10.8358 16.5 11.25C16.5 11.6642 16.1642 12 15.75 12H10.5C10.0858 12 9.75 11.6642 9.75 11.25Z" fill="white"/>
<path fill-rule="evenodd" clip-rule="evenodd" d="M9.75 15C9.75 14.5858 10.0858 14.25 10.5 14.25H15.75C16.1642 14.25 16.5 14.5858 16.5 15C16.5 15.4142 16.1642 15.75 15.75 15.75H10.5C10.0858 15.75 9.75 15.4142 9.75 15Z" fill="white"/>
</svg>
