<svg width="18" height="18" viewBox="0 0 18 18" fill="none" xmlns="http://www.w3.org/2000/svg">
<path fill-rule="evenodd" clip-rule="evenodd" d="M14.25 3C14.4489 3 14.6397 3.07902 14.7803 3.21967C14.921 3.36032 15 3.55109 15 3.75V13.9393L13.2803 12.2197C13.1397 12.079 12.9489 12 12.75 12H3.75C3.55109 12 3.36032 11.921 3.21967 11.7803C3.07902 11.6397 3 11.4489 3 11.25V3.75C3 3.55109 3.07902 3.36032 3.21967 3.21967C3.36032 3.07902 3.55109 3 3.75 3H14.25ZM15.841 2.15901C15.419 1.73705 14.8467 1.5 14.25 1.5H3.75C3.15326 1.5 2.58097 1.73705 2.15901 2.15901C1.73705 2.58097 1.5 3.15326 1.5 3.75V11.25C1.5 11.8467 1.73705 12.419 2.15901 12.841C2.58097 13.2629 3.15326 13.5 3.75 13.5H12.4393L15.2197 16.2803C15.4342 16.4948 15.7568 16.559 16.037 16.4429C16.3173 16.3268 16.5 16.0533 16.5 15.75V3.75C16.5 3.15326 16.2629 2.58097 15.841 2.15901Z" fill="white"/>
</svg>
